<?xml version="1.0" standalone="no"?>
<!DOCTYPE svg PUBLIC "-//W3C//DTD SVG 20010904//EN"
 "http://www.w3.org/TR/2001/REC-SVG-20010904/DTD/svg10.dtd">
<svg version="1.0" xmlns="http://www.w3.org/2000/svg"
 width="700.000000pt" height="700.000000pt" viewBox="0 0 700.000000 700.000000"
 preserveAspectRatio="xMidYMid meet">
<metadata>
Created by potrace 1.11, written by Peter Selinger 2001-2013
</metadata>
<g transform="translate(0.000000,700.000000) scale(0.100000,-0.100000)"
fill="#000000" stroke="none">
<path d="M0 3500 l0 -3500 3500 0 3500 0 0 3500 0 3500 -3500 0 -3500 0 0
-3500z m6830 0 l0 -3330 -3330 0 -3330 0 0 3330 0 3330 3330 0 3330 0 0 -3330z"/>
<path d="M3085 5778 c-210 -23 -434 -84 -604 -164 -425 -199 -681 -592 -681
-1044 0 -438 226 -772 665 -985 193 -93 419 -164 945 -295 461 -114 614 -162
760 -235 263 -131 384 -310 384 -565 0 -381 -291 -647 -799 -731 -114 -18
-156 -20 -335 -16 -230 6 -328 22 -503 81 -327 109 -545 300 -651 568 -27 69
-70 237 -82 321 l-6 47 -274 0 -274 0 0 -25 c0 -14 5 -69 11 -123 42 -386 176
-687 409 -921 322 -323 795 -481 1440 -481 502 0 947 155 1237 432 264 253
409 608 389 953 -23 400 -196 690 -546 914 -201 129 -420 207 -950 337 -651
160 -778 198 -970 292 -268 131 -367 450 -227 732 38 79 164 208 251 259 152
90 333 130 621 138 315 8 509 -27 698 -124 111 -58 246 -181 311 -287 50 -79
98 -214 116 -323 l12 -73 187 0 c104 0 229 3 279 6 l92 7 -6 56 c-26 253 -95
455 -219 642 -222 333 -590 531 -1113 599 -164 21 -418 25 -567 8z"/>
</g>
</svg>
