<svg width="500" height="500" version="1.1" viewBox="0 0 132.29 132.29" xmlns="http://www.w3.org/2000/svg">
  <g transform="matrix(.63071 .63071 -.70711 .70711 79.723 -2.5189)">
    <path transform="matrix(.20975 -.18709 .20975 .18709 -61.204 58.154)" d="m291.34 90.516a111.52 90.738 45 0 0-0.83008 0.001953 111.52 90.738 45 0 0-0.82813 0.009766 111.52 90.738 45 0 0-0.82617 0.017578 111.52 90.738 45 0 0-0.82422 0.023437 111.52 90.738 45 0 0-0.82422 0.03125 111.52 90.738 45 0 0-0.82226 0.03711 111.52 90.738 45 0 0-0.81836 0.046875 111.52 90.738 45 0 0-0.81836 0.050781 111.52 90.738 45 0 0-0.81641 0.060547 111.52 90.738 45 0 0-0.81445 0.066406 111.52 90.738 45 0 0-0.8125 0.072266 111.52 90.738 45 0 0-0.80859 0.080078 111.52 90.738 45 0 0-0.8086 0.08789 111.52 90.738 45 0 0-0.80468 0.095704 111.52 90.738 45 0 0-0.80469 0.10156 111.52 90.738 45 0 0-0.80078 0.10742 111.52 90.738 45 0 0-0.79883 0.11523 111.52 90.738 45 0 0-0.79688 0.12305 111.52 90.738 45 0 0-0.79296 0.12891 111.52 90.738 45 0 0-0.79297 0.13672 111.52 90.738 45 0 0-0.78907 0.14453 111.52 90.738 45 0 0-0.78515 0.15039 111.52 90.738 45 0 0-0.78516 0.1582 111.52 90.738 45 0 0-0.7793 0.16406 111.52 90.738 45 0 0-0.77929 0.16992 111.52 90.738 45 0 0-0.77539 0.17969 111.52 90.738 45 0 0-0.77149 0.18359 111.52 90.738 45 0 0-0.76953 0.19336 111.52 90.738 45 0 0-0.76758 0.19922 111.52 90.738 45 0 0-0.76367 0.20508 111.52 90.738 45 0 0-0.75976 0.21289 111.52 90.738 45 0 0-0.75782 0.21875 111.52 90.738 45 0 0-0.7539 0.22656 111.52 90.738 45 0 0-0.75 0.23242 111.52 90.738 45 0 0-0.74805 0.24023 111.52 90.738 45 0 0-0.74414 0.24609 111.52 90.738 45 0 0-0.74023 0.25391 111.52 90.738 45 0 0-0.73633 0.25977 111.52 90.738 45 0 0-0.73438 0.26758 111.52 90.738 45 0 0-0.73047 0.27344 111.52 90.738 45 0 0-0.72656 0.28125 111.52 90.738 45 0 0-0.72265 0.28711 111.52 90.738 45 0 0-0.71876 0.29297 111.52 90.738 45 0 0-0.71484 0.30078 111.52 90.738 45 0 0-0.71289 0.30664 111.52 90.738 45 0 0-0.70703 0.3125 111.52 90.738 45 0 0-0.70313 0.32031 111.52 90.738 45 0 0-0.69921 0.32617 111.52 90.738 45 0 0-0.69727 0.33398 111.52 90.738 45 0 0-0.69141 0.33789 111.52 90.738 45 0 0-0.6875 0.3457 111.52 90.738 45 0 0-0.68359 0.35352 111.52 90.738 45 0 0-0.67773 0.35938 111.52 90.738 45 0 0-0.67579 0.36523 111.52 90.738 45 0 0-0.66992 0.3711 111.52 90.738 45 0 0-0.66601 0.37695 111.52 90.738 45 0 0-0.66211 0.38476 111.52 90.738 45 0 0-0.65821 0.39063 111.52 90.738 45 0 0-0.65234 0.39648 111.52 90.738 45 0 0-0.64844 0.4043 111.52 90.738 45 0 0-0.64453 0.4082 111.52 90.738 45 0 0-0.63867 0.41602 111.52 90.738 45 0 0-0.63477 0.42187 111.52 90.738 45 0 0-0.6289 0.42774 111.52 90.738 45 0 0-0.625 0.43359 111.52 90.738 45 0 0-0.6211 0.43946 111.52 90.738 45 0 0-0.61523 0.44531 111.52 90.738 45 0 0-0.61133 0.45117 111.52 90.738 45 0 0-0.60547 0.45898 111.52 90.738 45 0 0-0.59961 0.46289 111.52 90.738 45 0 0-0.5957 0.47071 111.52 90.738 45 0 0-0.5918 0.47461 111.52 90.738 45 0 0-0.58398 0.48242 111.52 90.738 45 0 0-0.58008 0.48633 111.52 90.738 45 0 0-0.57617 0.49414 111.52 90.738 45 0 0-0.57031 0.49804 111.52 90.738 45 0 0-0.56446 0.50391 111.52 90.738 45 0 0-0.55859 0.50977 111.52 90.738 45 0 0-0.55469 0.51562 111.52 90.738 45 0 0-0.54883 0.52149 111.52 90.738 45 0 0-0.54296 0.52734 111.52 90.738 45 0 0-0.53711 0.53125 111.52 90.738 45 0 0-0.18555 0.1875 111.52 90.738 45 0 0-0.53125 0.53906 111.52 90.738 45 0 0-0.52539 0.54492 111.52 90.738 45 0 0-0.51953 0.55078 111.52 90.738 45 0 0-0.51367 0.55665 111.52 90.738 45 0 0-0.50782 0.56054 111.52 90.738 45 0 0-0.50195 0.56641 111.52 90.738 45 0 0-0.49609 0.57226 111.52 90.738 45 0 0-0.49219 0.57618 111.52 90.738 45 0 0-0.48438 0.58203 111.52 90.738 45 0 0-0.47851 0.58789 111.52 90.738 45 0 0-0.47461 0.5918 111.52 90.738 45 0 0-0.4668 0.59765 111.52 90.738 45 0 0-0.46289 0.60156 111.52 90.738 45 0 0-0.45508 0.60743 111.52 90.738 45 0 0-0.44922 0.61328 111.52 90.738 45 0 0-0.44531 0.61718 111.52 90.738 45 0 0-0.4375 0.6211 111.52 90.738 45 0 0-0.43164 0.62695 111.52 90.738 45 0 0-0.42578 0.63086 111.52 90.738 45 0 0-0.41797 0.63672 111.52 90.738 45 0 0-0.41406 0.64062 111.52 90.738 45 0 0-0.40625 0.64649 111.52 90.738 45 0 0-0.40235 0.65039 111.52 90.738 45 0 0-0.39453 0.6543 111.52 90.738 45 0 0-0.38671 0.6582 111.52 90.738 45 0 0-0.38282 0.66406 111.52 90.738 45 0 0-0.375 0.66797 111.52 90.738 45 0 0-0.37109 0.67188 111.52 90.738 45 0 0-0.36133 0.67578 111.52 90.738 45 0 0-0.35742 0.67968 111.52 90.738 45 0 0-0.34961 0.68555 111.52 90.738 45 0 0-0.34375 0.68945 111.52 90.738 45 0 0-0.33789 0.69336 111.52 90.738 45 0 0-0.33008 0.69727 111.52 90.738 45 0 0-0.32422 0.70117 111.52 90.738 45 0 0-0.31836 0.70508 111.52 90.738 45 0 0-0.31054 0.70898 111.52 90.738 45 0 0-0.30469 0.71289 111.52 90.738 45 0 0-0.29883 0.71485 111.52 90.738 45 0 0-0.29102 0.7207 111.52 90.738 45 0 0-0.2832 0.72461 111.52 90.738 45 0 0-0.2793 0.72852 111.52 90.738 45 0 0-0.27148 0.73047 111.52 90.738 45 0 0-0.26367 0.73437 111.52 90.738 45 0 0-0.25781 0.73828 111.52 90.738 45 0 0-0.25196 0.74219 111.52 90.738 45 0 0-0.24414 0.74609 111.52 90.738 45 0 0-0.23633 0.74805 111.52 90.738 45 0 0-0.23046 0.75195 111.52 90.738 45 0 0-0.22461 0.75586 111.52 90.738 45 0 0-0.2168 0.75781 111.52 90.738 45 0 0-0.21094 0.76172 111.52 90.738 45 0 0-0.20312 0.76368 111.52 90.738 45 0 0-0.19727 0.76757 111.52 90.738 45 0 0-0.18945 0.77149 111.52 90.738 45 0 0-0.18164 0.77344 111.52 90.738 45 0 0-0.17578 0.77539 111.52 90.738 45 0 0-0.16993 0.77929 111.52 90.738 45 0 0-0.16211 0.78125 111.52 90.738 45 0 0-0.15429 0.78516 111.52 90.738 45 0 0-0.14844 0.78711 111.52 90.738 45 0 0-0.14062 0.79101 111.52 90.738 45 0 0-0.13477 0.79102 111.52 90.738 45 0 0-0.12695 0.79492 111.52 90.738 45 0 0-0.11914 0.79883 111.52 90.738 45 0 0-0.11329 0.79883 111.52 90.738 45 0 0-0.10742 0.80273 111.52 90.738 45 0 0-0.09765 0.80274 111.52 90.738 45 0 0-0.09375 0.80664 111.52 90.738 45 0 0-0.08399 0.80859 111.52 90.738 45 0 0-0.07812 0.8125 111.52 90.738 45 0 0-0.07032 0.8125 111.52 90.738 45 0 0-0.06445 0.81445 111.52 90.738 45 0 0-0.05664 0.81641 111.52 90.738 45 0 0-0.05078 0.81836 111.52 90.738 45 0 0-0.04297 0.82031 111.52 90.738 45 0 0-0.03516 0.82227 111.52 90.738 45 0 0-0.02929 0.82422 111.52 90.738 45 0 0-0.02149 0.82617 111.52 90.738 45 0 0-0.01367 0.82617 111.52 90.738 45 0 0-0.00781 0.82813 111.52 90.738 45 0 0 0 0.83007 111.52 90.738 45 0 0 0.00586 0.83203 111.52 90.738 45 0 0 0.01562 0.83204 111.52 90.738 45 0 0 0.01953 0.83398 111.52 90.738 45 0 0 0.0293 0.83594 111.52 90.738 45 0 0 0.0332 0.83594 111.52 90.738 45 0 0 0.04297 0.83789 111.52 90.738 45 0 0 0.04883 0.83984 111.52 90.738 45 0 0 0.05664 0.83984 111.52 90.738 45 0 0 0.0625 0.83985 111.52 90.738 45 0 0 0.07031 0.84179 111.52 90.738 45 0 0 0.07813 0.8418 111.52 90.738 45 0 0 0.08398 0.84375 111.52 90.738 45 0 0 0.0918 0.84375 111.52 90.738 45 0 0 0.09766 0.8457 111.52 90.738 45 0 0 0.10547 0.84375 111.52 90.738 45 0 0 0.11328 0.84571 111.52 90.738 45 0 0 0.11914 0.8457 111.52 90.738 45 0 0 0.12695 0.84766 111.52 90.738 45 0 0 0.13281 0.84765 111.52 90.738 45 0 0 0.14063 0.84571 111.52 90.738 45 0 0 0.14648 0.84765 111.52 90.738 45 0 0 0.1543 0.84766 111.52 90.738 45 0 0 0.16211 0.84765 111.52 90.738 45 0 0 0.16797 0.84766 111.52 90.738 45 0 0 0.17578 0.84961 111.52 90.738 45 0 0 0.18164 0.84766 111.52 90.738 45 0 0 0.18945 0.84765 111.52 90.738 45 0 0 0.19532 0.84766 111.52 90.738 45 0 0 0.20312 0.8457 111.52 90.738 45 0 0 0.20898 0.84766 111.52 90.738 45 0 0 0.2168 0.8457 111.52 90.738 45 0 0 0.22266 0.84766 111.52 90.738 45 0 0 0.23047 0.8457 111.52 90.738 45 0 0 0.23632 0.8457 111.52 90.738 45 0 0 0.24415 0.84375 111.52 90.738 45 0 0 0.25 0.84375 111.52 90.738 45 0 0 0.25781 0.84375 111.52 90.738 45 0 0 0.26367 0.8418 111.52 90.738 45 0 0 0.27148 0.8418 111.52 90.738 45 0 0 0.27735 0.84179 111.52 90.738 45 0 0 0.2832 0.83985 111.52 90.738 45 0 0 0.29102 0.83789 111.52 90.738 45 0 0 0.29687 0.83789 111.52 90.738 45 0 0 0.30469 0.83789 111.52 90.738 45 0 0 0.31055 0.83594 111.52 90.738 45 0 0 0.3164 0.83398 111.52 90.738 45 0 0 0.32422 0.83399 111.52 90.738 45 0 0 0.33008 0.83007 111.52 90.738 45 0 0 0.33594 0.83204 111.52 90.738 45 0 0 0.34375 0.82812 111.52 90.738 45 0 0 0.34961 0.82813 111.52 90.738 45 0 0 0.35546 0.82421 111.52 90.738 45 0 0 0.36133 0.82422 111.52 90.738 45 0 0 0.36914 0.82227 111.52 90.738 45 0 0 0.375 0.82226 111.52 90.738 45 0 0 0.38282 0.81836 111.52 90.738 45 0 0 0.38671 0.81641 111.52 90.738 45 0 0 0.39454 0.81641 111.52 90.738 45 0 0 0.40039 0.8125 111.52 90.738 45 0 0 0.40625 0.81054 111.52 90.738 45 0 0 0.41211 0.81055 111.52 90.738 45 0 0 0.41992 0.80664 111.52 90.738 45 0 0 0.42383 0.80469 111.52 90.738 45 0 0 0.43164 0.80273 111.52 90.738 45 0 0 0.4375 0.79883 111.52 90.738 45 0 0 0.44336 0.79883 111.52 90.738 45 0 0 0.44921 0.79492 111.52 90.738 45 0 0 0.45508 0.79297 111.52 90.738 45 0 0 0.46094 0.79102 111.52 90.738 45 0 0 0.4668 0.7871 111.52 90.738 45 0 0 0.47265 0.78516 111.52 90.738 45 0 0 0.47852 0.7832 111.52 90.738 45 0 0 0.48437 0.7793 111.52 90.738 45 0 0 0.49024 0.77734 111.52 90.738 45 0 0 0.49609 0.77344 111.52 90.738 45 0 0 0.50196 0.77149 111.52 90.738 45 0 0 0.50781 0.76757 111.52 90.738 45 0 0 0.51367 0.76563 111.52 90.738 45 0 0 0.51953 0.76172 111.52 90.738 45 0 0 0.52344 0.75976 111.52 90.738 45 0 0 0.52929 0.75586 111.52 90.738 45 0 0 0.53711 0.75196 111.52 90.738 45 0 0 0.54102 0.75 111.52 90.738 45 0 0 0.54492 0.74609 111.52 90.738 45 0 0 0.55274 0.74219 111.52 90.738 45 0 0 0.55664 0.73828 111.52 90.738 45 0 0 0.5625 0.73633 111.52 90.738 45 0 0 0.5664 0.73242 111.52 90.738 45 0 0 0.57422 0.72851 111.52 90.738 45 0 0 0.57813 0.72461 111.52 90.738 45 0 0 0.58203 0.72071 111.52 90.738 45 0 0 0.58984 0.71875 111.52 90.738 45 0 0 0.5918 0.71289 111.52 90.738 45 0 0 0.59961 0.70898 111.52 90.738 45 0 0 0.60351 0.70703 111.52 90.738 45 0 0 0.60743 0.70118 111.52 90.738 45 0 0 0.61328 0.69726 111.52 90.738 45 0 0 0.61914 0.69531 111.52 90.738 45 0 0 0.62304 0.68946 111.52 90.738 45 0 0 0.62696 0.68554 111.52 90.738 45 0 0 0.63281 0.68164 111.52 90.738 45 0 0 0.63672 0.67774 111.52 90.738 45 0 0 0.64258 0.67187 111.52 90.738 45 0 0 0.64453 0.66992 111.52 90.738 45 0 0 0.65234 0.66407 111.52 90.738 45 0 0 0.6543 0.66015 111.52 90.738 45 0 0 0.22851 0.22657 111.52 90.738 45 0 0 0.66211 0.65429 111.52 90.738 45 0 0 0.66602 0.65039 111.52 90.738 45 0 0 0.66992 0.64453 111.52 90.738 45 0 0 0.67383 0.64063 111.52 90.738 45 0 0 0.67969 0.63477 111.52 90.738 45 0 0 0.68359 0.63086 111.52 90.738 45 0 0 0.68555 0.625 111.52 90.738 45 0 0 0.6914 0.62304 111.52 90.738 45 0 0 0.69532 0.61524 111.52 90.738 45 0 0 0.69922 0.61132 111.52 90.738 45 0 0 0.70312 0.60743 111.52 90.738 45 0 0 0.70898 0.60156 111.52 90.738 45 0 0 0.71094 0.5957 111.52 90.738 45 0 0 0.71485 0.5918 111.52 90.738 45 0 0 0.71875 0.58789 111.52 90.738 45 0 0 0.72265 0.58008 111.52 90.738 45 0 0 0.72461 0.57617 111.52 90.738 45 0 0 0.73047 0.57227 111.52 90.738 45 0 0 0.73242 0.56445 111.52 90.738 45 0 0 0.73828 0.56055 111.52 90.738 45 0 0 0.74024 0.55664 111.52 90.738 45 0 0 0.74414 0.54882 111.52 90.738 45 0 0 0.74609 0.54493 111.52 90.738 45 0 0 0.75 0.53906 111.52 90.738 45 0 0 0.75391 0.5332 111.52 90.738 45 0 0 0.75781 0.52735 111.52 90.738 45 0 0 0.75977 0.52343 111.52 90.738 45 0 0 0.76367 0.51758 111.52 90.738 45 0 0 0.76562 0.50977 111.52 90.738 45 0 0 0.76953 0.50586 111.52 90.738 45 0 0 0.77149 0.5 111.52 90.738 45 0 0 0.77539 0.49414 111.52 90.738 45 0 0 0.77734 0.48828 111.52 90.738 45 0 0 0.78125 0.48242 111.52 90.738 45 0 0 0.78321 0.47656 111.52 90.738 45 0 0 0.78711 0.4707 111.52 90.738 45 0 0 0.7871 0.46485 111.52 90.738 45 0 0 0.79297 0.46094 111.52 90.738 45 0 0 0.79297 0.45312 111.52 90.738 45 0 0 0.79688 0.44531 111.52 90.738 45 0 0 0.79883 0.44141 111.52 90.738 45 0 0 0.80078 0.43555 111.52 90.738 45 0 0 0.80273 0.42968 111.52 90.738 45 0 0 0.80469 0.42188 111.52 90.738 45 0 0 0.80859 0.41602 111.52 90.738 45 0 0 0.81055 0.4121 111.52 90.738 45 0 0 0.81055 0.4043 111.52 90.738 45 0 0 0.81445 0.39844 111.52 90.738 45 0 0 0.81641 0.39062 111.52 90.738 45 0 0 0.8164 0.38672 111.52 90.738 45 0 0 0.82031 0.37891 111.52 90.738 45 0 0 0.82227 0.37305 111.52 90.738 45 0 0 0.82227 0.36523 111.52 90.738 45 0 0 0.82421 0.36133 111.52 90.738 45 0 0 0.82618 0.35351 111.52 90.738 45 0 0 0.82812 0.34766 111.52 90.738 45 0 0 0.83008 0.33984 111.52 90.738 45 0 0 0.83008 0.33399 111.52 90.738 45 0 0 0.83203 0.32812 111.52 90.738 45 0 0 0.83398 0.32227 111.52 90.738 45 0 0 0.83594 0.31445 111.52 90.738 45 0 0 0.83594 0.3086 111.52 90.738 45 0 0 0.83594 0.30078 111.52 90.738 45 0 0 0.83984 0.29492 111.52 90.738 45 0 0 0.83789 0.28906 111.52 90.738 45 0 0 0.8418 0.28125 111.52 90.738 45 0 0 0.83984 0.27539 111.52 90.738 45 0 0 0.8418 0.26758 111.52 90.738 45 0 0 0.84375 0.26172 111.52 90.738 45 0 0 0.84375 0.2539 111.52 90.738 45 0 0 0.84375 0.24805 111.52 90.738 45 0 0 0.8457 0.24219 111.52 90.738 45 0 0 0.84375 0.23437 111.52 90.738 45 0 0 0.84766 0.22852 111.52 90.738 45 0 0 0.8457 0.2207 111.52 90.738 45 0 0 0.84766 0.21289 111.52 90.738 45 0 0 0.8457 0.20899 111.52 90.738 45 0 0 0.84766 0.19922 111.52 90.738 45 0 0 0.84765 0.19336 111.52 90.738 45 0 0 0.84766 0.1875 111.52 90.738 45 0 0 0.84765 0.17968 111.52 90.738 45 0 0 0.84766 0.17188 111.52 90.738 45 0 0 0.84766 0.16601 111.52 90.738 45 0 0 0.84765 0.15821 111.52 90.738 45 0 0 0.84766 0.15234 111.52 90.738 45 0 0 0.84766 0.14453 111.52 90.738 45 0 0 0.84765 0.13867 111.52 90.738 45 0 0 0.84766 0.13086 111.52 90.738 45 0 0 0.8457 0.125 111.52 90.738 45 0 0 0.8457 0.11719 111.52 90.738 45 0 0 0.84571 0.10938 111.52 90.738 45 0 0 0.8457 0.10351 111.52 90.738 45 0 0 0.84375 0.09571 111.52 90.738 45 0 0 0.84375 0.08789 111.52 90.738 45 0 0 0.8418 0.08203 111.52 90.738 45 0 0 0.84375 0.07617 111.52 90.738 45 0 0 0.83984 0.06641 111.52 90.738 45 0 0 0.8418 0.0625 111.52 90.738 45 0 0 0.83789 0.05273 111.52 90.738 45 0 0 0.83984 0.04687 111.52 90.738 45 0 0 0.83594 0.03907 111.52 90.738 45 0 0 0.83594 0.0332 111.52 90.738 45 0 0 0.83593 0.02539 111.52 90.738 45 0 0 0.83399 0.01758 111.52 90.738 45 0 0 0.83203 0.01172 111.52 90.738 45 0 0 0.83008 0.0039 111.52 90.738 45 0 0 0.83008-0.00195 111.52 90.738 45 0 0 0.82812-0.00977 111.52 90.738 45 0 0 0.82617-0.01757 111.52 90.738 45 0 0 0.82618-0.02344 111.52 90.738 45 0 0 0.82226-0.03125 111.52 90.738 45 0 0 0.82227-0.03711 111.52 90.738 45 0 0 0.81836-0.04687 111.52 90.738 45 0 0 0.81836-0.05079 111.52 90.738 45 0 0 0.8164-0.06054 111.52 90.738 45 0 0 0.81446-0.06641 111.52 90.738 45 0 0 0.8125-0.07226 111.52 90.738 45 0 0 0.80859-0.08204 111.52 90.738 45 0 0 0.80859-0.08593 111.52 90.738 45 0 0 0.80664-0.09571 111.52 90.738 45 0 0 0.80274-0.10156 111.52 90.738 45 0 0 0.80078-0.10742 111.52 90.738 45 0 0 0.79883-0.11524 111.52 90.738 45 0 0 0.79687-0.12304 111.52 90.738 45 0 0 0.79492-0.13086 111.52 90.738 45 0 0 0.79102-0.13477 111.52 90.738 45 0 0 0.78906-0.14453 111.52 90.738 45 0 0 0.78516-0.15039 111.52 90.738 45 0 0 0.78515-0.1582 111.52 90.738 45 0 0 0.78125-0.16407 111.52 90.738 45 0 0 0.77735-0.16992 111.52 90.738 45 0 0 0.77539-0.17968 111.52 90.738 45 0 0 0.77148-0.18555 111.52 90.738 45 0 0 0.76953-0.19141 111.52 90.738 45 0 0 0.76758-0.19922 111.52 90.738 45 0 0 0.76367-0.20507 111.52 90.738 45 0 0 0.75977-0.21289 111.52 90.738 45 0 0 0.75781-0.21876 111.52 90.738 45 0 0 0.75391-0.22656 111.52 90.738 45 0 0 0.75-0.23242 111.52 90.738 45 0 0 0.74805-0.24023 111.52 90.738 45 0 0 0.74414-0.24805 111.52 90.738 45 0 0 0.74023-0.25195 111.52 90.738 45 0 0 0.73633-0.26172 111.52 90.738 45 0 0 0.73437-0.26563 111.52 90.738 45 0 0 0.73047-0.27344 111.52 90.738 45 0 0 0.72656-0.28124 111.52 90.738 45 0 0 0.72266-0.28711 111.52 90.738 45 0 0 0.71875-0.29297 111.52 90.738 45 0 0 0.71485-0.30078 111.52 90.738 45 0 0 0.71289-0.30664 111.52 90.738 45 0 0 0.70703-0.3125 111.52 90.738 45 0 0 0.70312-0.32032 111.52 90.738 45 0 0 0.70117-0.32617 111.52 90.738 45 0 0 0.69532-0.33398 111.52 90.738 45 0 0 0.6914-0.33789 111.52 90.738 45 0 0 0.6875-0.34766 111.52 90.738 45 0 0 0.6836-0.35156 111.52 90.738 45 0 0 0.67773-0.35938 111.52 90.738 45 0 0 0.67578-0.36523 111.52 90.738 45 0 0 0.66992-0.3711 111.52 90.738 45 0 0 0.66797-0.37695 111.52 90.738 45 0 0 0.66016-0.38476 111.52 90.738 45 0 0 0.6582-0.39063 111.52 90.738 45 0 0 0.65235-0.39648 111.52 90.738 45 0 0 0.64843-0.4043 111.52 90.738 45 0 0 0.64453-0.4082 111.52 90.738 45 0 0 0.63868-0.41602 111.52 90.738 45 0 0 0.63476-0.42187 111.52 90.738 45 0 0 0.63086-0.42774 111.52 90.738 45 0 0 0.625-0.43359 111.52 90.738 45 0 0 0.61914-0.43946 111.52 90.738 45 0 0 0.61524-0.44531 111.52 90.738 45 0 0 0.61132-0.45312 111.52 90.738 45 0 0 0.60547-0.45704 111.52 90.738 45 0 0 0.59961-0.46289 111.52 90.738 45 0 0 0.59571-0.4707 111.52 90.738 45 0 0 0.59179-0.47461 111.52 90.738 45 0 0 0.58399-0.48242 111.52 90.738 45 0 0 0.58203-0.48633 111.52 90.738 45 0 0 0.57422-0.49414 111.52 90.738 45 0 0 0.57031-0.49805 111.52 90.738 45 0 0 0.56445-0.5039 111.52 90.738 45 0 0 0.5586-0.50977 111.52 90.738 45 0 0 0.55468-0.51562 111.52 90.738 45 0 0 0.54883-0.52149 111.52 90.738 45 0 0 0.54297-0.52734 111.52 90.738 45 0 0 0.53906-0.5332 111.52 90.738 45 0 0 0.1836-0.18555 111.52 90.738 45 0 0 0.53125-0.53906 111.52 90.738 45 0 0 0.52539-0.54493 111.52 90.738 45 0 0 0.51953-0.55078 111.52 90.738 45 0 0 0.51367-0.55664 111.52 90.738 45 0 0 0.50781-0.56054 111.52 90.738 45 0 0 0.50196-0.56641 111.52 90.738 45 0 0 0.49609-0.57227 111.52 90.738 45 0 0 0.49219-0.57617 111.52 90.738 45 0 0 0.48437-0.58203 111.52 90.738 45 0 0 0.48047-0.58789 111.52 90.738 45 0 0 0.47266-0.5918 111.52 90.738 45 0 0 0.46679-0.59765 111.52 90.738 45 0 0 0.4629-0.60352 111.52 90.738 45 0 0 0.45507-0.60742 111.52 90.738 45 0 0 0.45117-0.61133 111.52 90.738 45 0 0 0.44336-0.61719 111.52 90.738 45 0 0 0.4375-0.62109 111.52 90.738 45 0 0 0.43164-0.62695 111.52 90.738 45 0 0 0.42579-0.63282 111.52 90.738 45 0 0 0.41797-0.63476 111.52 90.738 45 0 0 0.41406-0.64063 111.52 90.738 45 0 0 0.40625-0.64648 111.52 90.738 45 0 0 0.40234-0.65039 111.52 90.738 45 0 0 0.39453-0.6543 111.52 90.738 45 0 0 0.38867-0.6582 111.52 90.738 45 0 0 0.38086-0.66406 111.52 90.738 45 0 0 0.37696-0.66797 111.52 90.738 45 0 0 0.36914-0.67188 111.52 90.738 45 0 0 0.36328-0.67578 111.52 90.738 45 0 0 0.35547-0.68164 111.52 90.738 45 0 0 0.34961-0.68359 111.52 90.738 45 0 0 0.34375-0.68946 111.52 90.738 45 0 0 0.33789-0.69336 111.52 90.738 45 0 0 0.33008-0.69726 111.52 90.738 45 0 0 0.32421-0.70117 111.52 90.738 45 0 0 0.31836-0.70508 111.52 90.738 45 0 0 0.31055-0.70899 111.52 90.738 45 0 0 0.30469-0.71289 111.52 90.738 45 0 0 0.29883-0.71679 111.52 90.738 45 0 0 0.29101-0.71875 111.52 90.738 45 0 0 0.28516-0.72461 111.52 90.738 45 0 0 0.27734-0.72852 111.52 90.738 45 0 0 0.27149-0.73047 111.52 90.738 45 0 0 0.26367-0.73437 111.52 90.738 45 0 0 0.25781-0.73828 111.52 90.738 45 0 0 0.25195-0.74219 111.52 90.738 45 0 0 0.24414-0.74609 111.52 90.738 45 0 0 0.23633-0.74805 111.52 90.738 45 0 0 0.23242-0.75195 111.52 90.738 45 0 0 0.22266-0.75586 111.52 90.738 45 0 0 0.2168-0.75782 111.52 90.738 45 0 0 0.21093-0.76171 111.52 90.738 45 0 0 0.20313-0.76368 111.52 90.738 45 0 0 0.19727-0.76757 111.52 90.738 45 0 0 0.18945-0.77149 111.52 90.738 45 0 0 0.18164-0.77344 111.52 90.738 45 0 0 0.17578-0.77539 111.52 90.738 45 0 0 0.16992-0.77929 111.52 90.738 45 0 0 0.16211-0.78321 111.52 90.738 45 0 0 0.1543-0.7832 111.52 90.738 45 0 0 0.14844-0.78711 111.52 90.738 45 0 0 0.14062-0.79101 111.52 90.738 45 0 0 0.13477-0.79102 111.52 90.738 45 0 0 0.12695-0.79492 111.52 90.738 45 0 0 0.12109-0.79883 111.52 90.738 45 0 0 0.11329-0.79883 111.52 90.738 45 0 0 0.10546-0.80273 111.52 90.738 45 0 0 0.09961-0.80469 111.52 90.738 45 0 0 0.0918-0.80469 111.52 90.738 45 0 0 0.08398-0.81055 111.52 90.738 45 0 0 0.07813-0.81054 111.52 90.738 45 0 0 0.07226-0.8125 111.52 90.738 45 0 0 0.0625-0.81446 111.52 90.738 45 0 0 0.05665-0.8164 111.52 90.738 45 0 0 0.05078-0.81836 111.52 90.738 45 0 0 0.04297-0.82031 111.52 90.738 45 0 0 0.03515-0.82227 111.52 90.738 45 0 0 0.0293-0.82422 111.52 90.738 45 0 0 0.02148-0.82617 111.52 90.738 45 0 0 0.01367-0.82617 111.52 90.738 45 0 0 0.00782-0.82813 111.52 90.738 45 0 0 0-0.83007 111.52 90.738 45 0 0-0.00586-0.83204 111.52 90.738 45 0 0-0.01367-0.83203 111.52 90.738 45 0 0-0.02149-0.83593 111.52 90.738 45 0 0-0.02734-0.83399 111.52 90.738 45 0 0-0.03516-0.83789 111.52 90.738 45 0 0-0.04297-0.83594 111.52 90.738 45 0 0-0.04883-0.83984 111.52 90.738 45 0 0-0.05664-0.83984 111.52 90.738 45 0 0-0.0625-0.83985 111.52 90.738 45 0 0-0.07031-0.84179 111.52 90.738 45 0 0-0.07812-0.8418 111.52 90.738 45 0 0-0.08399-0.84375 111.52 90.738 45 0 0-0.09179-0.84375 111.52 90.738 45 0 0-0.09766-0.8457 111.52 90.738 45 0 0-0.10547-0.84376 111.52 90.738 45 0 0-0.11328-0.8457 111.52 90.738 45 0 0-0.11914-0.84765 111.52 90.738 45 0 0-0.12695-0.84571 111.52 90.738 45 0 0-0.13282-0.84765 111.52 90.738 45 0 0-0.14062-0.84571 111.52 90.738 45 0 0-0.14649-0.84765 111.52 90.738 45 0 0-0.15429-0.84766 111.52 90.738 45 0 0-0.16211-0.84766 111.52 90.738 45 0 0-0.16797-0.84765 111.52 90.738 45 0 0-0.17578-0.84961 111.52 90.738 45 0 0-0.18164-0.84766 111.52 90.738 45 0 0-0.18946-0.84765 111.52 90.738 45 0 0-0.19531-0.84766 111.52 90.738 45 0 0-0.20312-0.8457 111.52 90.738 45 0 0-0.20899-0.84766 111.52 90.738 45 0 0-0.21679-0.84766 111.52 90.738 45 0 0-0.22266-0.8457 111.52 90.738 45 0 0-0.23047-0.8457 111.52 90.738 45 0 0-0.23633-0.8457 111.52 90.738 45 0 0-0.24414-0.84376 111.52 90.738 45 0 0-0.25-0.84374 111.52 90.738 45 0 0-0.25781-0.84376 111.52 90.738 45 0 0-0.26367-0.84179 111.52 90.738 45 0 0-0.27149-0.8418 111.52 90.738 45 0 0-0.27734-0.8418 111.52 90.738 45 0 0-0.2832-0.83984 111.52 90.738 45 0 0-0.29102-0.83984 111.52 90.738 45 0 0-0.29687-0.83789 111.52 90.738 45 0 0-0.30469-0.83594 111.52 90.738 45 0 0-0.31055-0.83594 111.52 90.738 45 0 0-0.31641-0.83398 111.52 90.738 45 0 0-0.32421-0.83399 111.52 90.738 45 0 0-0.33008-0.83008 111.52 90.738 45 0 0-0.33594-0.83203 111.52 90.738 45 0 0-0.34375-0.82812 111.52 90.738 45 0 0-0.34961-0.82813 111.52 90.738 45 0 0-0.35547-0.82422 111.52 90.738 45 0 0-0.36133-0.82421 111.52 90.738 45 0 0-0.36914-0.82422 111.52 90.738 45 0 0-0.375-0.82032 111.52 90.738 45 0 0-0.38086-0.81836 111.52 90.738 45 0 0-0.38867-0.8164 111.52 90.738 45 0 0-0.39453-0.81641 111.52 90.738 45 0 0-0.40039-0.8125 111.52 90.738 45 0 0-0.40625-0.8125 111.52 90.738 45 0 0-0.41211-0.80859 111.52 90.738 45 0 0-0.41992-0.80664 111.52 90.738 45 0 0-0.42383-0.80469 111.52 90.738 45 0 0-0.43164-0.80273 111.52 90.738 45 0 0-0.4375-0.80078 111.52 90.738 45 0 0-0.44336-0.79688 111.52 90.738 45 0 0-0.44922-0.79492 111.52 90.738 45 0 0-0.45508-0.79297 111.52 90.738 45 0 0-0.46093-0.79102 111.52 90.738 45 0 0-0.4668-0.78711 111.52 90.738 45 0 0-0.47266-0.78515 111.52 90.738 45 0 0-0.47851-0.78321 111.52 90.738 45 0 0-0.48438-0.77929 111.52 90.738 45 0 0-0.49023-0.77735 111.52 90.738 45 0 0-0.4961-0.77343 111.52 90.738 45 0 0-0.50195-0.77149 111.52 90.738 45 0 0-0.50781-0.76758 111.52 90.738 45 0 0-0.51367-0.76562 111.52 90.738 45 0 0-0.51758-0.76172 111.52 90.738 45 0 0-0.52539-0.75976 111.52 90.738 45 0 0-0.5293-0.75586 111.52 90.738 45 0 0-0.53515-0.75196 111.52 90.738 45 0 0-0.54102-0.75 111.52 90.738 45 0 0-0.54688-0.74609 111.52 90.738 45 0 0-0.55273-0.74219 111.52 90.738 45 0 0-0.55664-0.73828 111.52 90.738 45 0 0-0.5625-0.73633 111.52 90.738 45 0 0-0.56641-0.73242 111.52 90.738 45 0 0-0.57422-0.72852 111.52 90.738 45 0 0-0.57812-0.72461 111.52 90.738 45 0 0-0.58203-0.7207 111.52 90.738 45 0 0-0.58789-0.71875 111.52 90.738 45 0 0-0.59375-0.71289 111.52 90.738 45 0 0-0.59961-0.70898 111.52 90.738 45 0 0-0.60352-0.70703 111.52 90.738 45 0 0-0.60742-0.70118 111.52 90.738 45 0 0-0.61328-0.69921 111.52 90.738 45 0 0-0.61719-0.69336 111.52 90.738 45 0 0-0.62305-0.68946 111.52 90.738 45 0 0-0.6289-0.68554 111.52 90.738 45 0 0-0.63281-0.68164 111.52 90.738 45 0 0-0.63672-0.67774 111.52 90.738 45 0 0-0.64063-0.67187 111.52 90.738 45 0 0-0.64648-0.66993 111.52 90.738 45 0 0-0.65235-0.66406 111.52 90.738 45 0 0-0.65429-0.66016 111.52 90.738 45 0 0-0.22852-0.22851 111.52 90.738 45 0 0-0.66211-0.65234 111.52 90.738 45 0 0-0.66601-0.65039 111.52 90.738 45 0 0-0.66992-0.64454 111.52 90.738 45 0 0-0.67383-0.64062 111.52 90.738 45 0 0-0.67969-0.63477 111.52 90.738 45 0 0-0.68164-0.63086 111.52 90.738 45 0 0-0.6875-0.62695 111.52 90.738 45 0 0-0.69141-0.62109 111.52 90.738 45 0 0-0.69531-0.61524 111.52 90.738 45 0 0-0.69922-0.61133 111.52 90.738 45 0 0-0.70312-0.60742 111.52 90.738 45 0 0-0.70704-0.60156 111.52 90.738 45 0 0-0.71289-0.59766 111.52 90.738 45 0 0-0.71484-0.58984 111.52 90.738 45 0 0-0.71875-0.58789 111.52 90.738 45 0 0-0.7207-0.58008 111.52 90.738 45 0 0-0.72656-0.57617 111.52 90.738 45 0 0-0.73047-0.57227 111.52 90.738 45 0 0-0.73243-0.5664 111.52 90.738 45 0 0-0.73828-0.56055 111.52 90.738 45 0 0-0.74023-0.55469 111.52 90.738 45 0 0-0.74219-0.54883 111.52 90.738 45 0 0-0.74805-0.54492 111.52 90.738 45 0 0-0.75-0.53906 111.52 90.738 45 0 0-0.7539-0.5332 111.52 90.738 45 0 0-0.75781-0.52735 111.52 90.738 45 0 0-0.75977-0.52343 111.52 90.738 45 0 0-0.76367-0.51758 111.52 90.738 45 0 0-0.76563-0.50977 111.52 90.738 45 0 0-0.76953-0.50586 111.52 90.738 45 0 0-0.77148-0.5 111.52 90.738 45 0 0-0.77539-0.49414 111.52 90.738 45 0 0-0.77735-0.48828 111.52 90.738 45 0 0-0.78125-0.48242 111.52 90.738 45 0 0-0.7832-0.47656 111.52 90.738 45 0 0-0.78516-0.47071 111.52 90.738 45 0 0-0.78906-0.46679 111.52 90.738 45 0 0-0.79101-0.45899 111.52 90.738 45 0 0-0.79493-0.45312 111.52 90.738 45 0 0-0.79687-0.44727 111.52 90.738 45 0 0-0.79688-0.43945 111.52 90.738 45 0 0-0.80273-0.43555 111.52 90.738 45 0 0-0.80273-0.42969 111.52 90.738 45 0 0-0.80469-0.42187 111.52 90.738 45 0 0-0.8086-0.41797 111.52 90.738 45 0 0-0.80859-0.41016 111.52 90.738 45 0 0-0.8125-0.40429 111.52 90.738 45 0 0-0.81445-0.39844 111.52 90.738 45 0 0-0.81641-0.39063 111.52 90.738 45 0 0-0.81641-0.38671 111.52 90.738 45 0 0-0.82031-0.37891 111.52 90.738 45 0 0-0.82031-0.37305 111.52 90.738 45 0 0-0.82422-0.36523 111.52 90.738 45 0 0-0.82422-0.36133 111.52 90.738 45 0 0-0.82617-0.35352 111.52 90.738 45 0 0-0.82812-0.34766 111.52 90.738 45 0 0-0.83008-0.33984 111.52 90.738 45 0 0-0.83008-0.33398 111.52 90.738 45 0 0-0.83203-0.32812 111.52 90.738 45 0 0-0.83399-0.32227 111.52 90.738 45 0 0-0.83593-0.31445 111.52 90.738 45 0 0-0.83594-0.30859 111.52 90.738 45 0 0-0.83594-0.30078 111.52 90.738 45 0 0-0.83789-0.29492 111.52 90.738 45 0 0-0.83984-0.28906 111.52 90.738 45 0 0-0.83985-0.28125 111.52 90.738 45 0 0-0.84179-0.27539 111.52 90.738 45 0 0-0.8418-0.26758 111.52 90.738 45 0 0-0.84375-0.26172 111.52 90.738 45 0 0-0.84375-0.25586 111.52 90.738 45 0 0-0.84375-0.24805 111.52 90.738 45 0 0-0.84375-0.24024 111.52 90.738 45 0 0-0.8457-0.23438 111.52 90.738 45 0 0-0.84571-0.22852 111.52 90.738 45 0 0-0.84765-0.2207 111.52 90.738 45 0 0-0.84571-0.21484 111.52 90.738 45 0 0-0.84765-0.20703 111.52 90.738 45 0 0-0.84766-0.19922 111.52 90.738 45 0 0-0.84766-0.19336 111.52 90.738 45 0 0-0.84765-0.1875 111.52 90.738 45 0 0-0.84766-0.17969 111.52 90.738 45 0 0-0.84765-0.17188 111.52 90.738 45 0 0-0.84766-0.16602 111.52 90.738 45 0 0-0.84766-0.1582 111.52 90.738 45 0 0-0.84765-0.15234 111.52 90.738 45 0 0-0.84766-0.14648 111.52 90.738 45 0 0-0.84766-0.13672 111.52 90.738 45 0 0-0.8457-0.13086 111.52 90.738 45 0 0-0.84765-0.125 111.52 90.738 45 0 0-0.84571-0.11719 111.52 90.738 45 0 0-0.8457-0.10938 111.52 90.738 45 0 0-0.84375-0.10352 111.52 90.738 45 0 0-0.8457-0.095703 111.52 90.738 45 0 0-0.84375-0.087891 111.52 90.738 45 0 0-0.8418-0.082031 111.52 90.738 45 0 0-0.8418-0.076172 111.52 90.738 45 0 0-0.84179-0.066406 111.52 90.738 45 0 0-0.83985-0.0625 111.52 90.738 45 0 0-0.83984-0.052735 111.52 90.738 45 0 0-0.83789-0.046875 111.52 90.738 45 0 0-0.83789-0.039062 111.52 90.738 45 0 0-0.83594-0.033203 111.52 90.738 45 0 0-0.83594-0.025391 111.52 90.738 45 0 0-0.83398-0.017578 111.52 90.738 45 0 0-0.83203-0.011719 111.52 90.738 45 0 0-0.83008-0.003906z" fill="#b3b3b3" fill-rule="evenodd" opacity=".74301" stroke-width="1.4307"/>
    <path transform="matrix(.20975 -.18709 .20975 .18709 -61.204 58.154)" d="m285.56 65.1a139.4 113.42 45 0 0-72.207 28.506 139.4 113.42 45 0 0 18.371 178.77 139.4 113.42 45 0 0 178.77 18.371 139.4 113.42 45 0 0-18.369-178.77 139.4 113.42 45 0 0-106.57-46.877zm5.7774 25.416a111.52 90.738 45 0 1 0.83008 0.003906 111.52 90.738 45 0 1 0.83203 0.011719 111.52 90.738 45 0 1 0.83398 0.017578 111.52 90.738 45 0 1 0.83594 0.025391 111.52 90.738 45 0 1 0.83594 0.033203 111.52 90.738 45 0 1 0.83789 0.039062 111.52 90.738 45 0 1 0.83789 0.046875 111.52 90.738 45 0 1 0.83984 0.052735 111.52 90.738 45 0 1 0.83985 0.0625 111.52 90.738 45 0 1 0.84179 0.066406 111.52 90.738 45 0 1 0.8418 0.076172 111.52 90.738 45 0 1 0.8418 0.082031 111.52 90.738 45 0 1 0.84375 0.087891 111.52 90.738 45 0 1 0.8457 0.095703 111.52 90.738 45 0 1 0.84375 0.10352 111.52 90.738 45 0 1 0.8457 0.10938 111.52 90.738 45 0 1 0.84571 0.11719 111.52 90.738 45 0 1 0.84765 0.125 111.52 90.738 45 0 1 0.8457 0.13086 111.52 90.738 45 0 1 0.84766 0.13672 111.52 90.738 45 0 1 0.84766 0.14648 111.52 90.738 45 0 1 0.84765 0.15234 111.52 90.738 45 0 1 0.84766 0.1582 111.52 90.738 45 0 1 0.84766 0.16602 111.52 90.738 45 0 1 0.84765 0.17188 111.52 90.738 45 0 1 0.84766 0.17969 111.52 90.738 45 0 1 0.84765 0.1875 111.52 90.738 45 0 1 0.84766 0.19336 111.52 90.738 45 0 1 0.84766 0.19922 111.52 90.738 45 0 1 0.84765 0.20703 111.52 90.738 45 0 1 0.84571 0.21484 111.52 90.738 45 0 1 0.84765 0.2207 111.52 90.738 45 0 1 0.84571 0.22852 111.52 90.738 45 0 1 0.8457 0.23438 111.52 90.738 45 0 1 0.84375 0.24024 111.52 90.738 45 0 1 0.84375 0.24805 111.52 90.738 45 0 1 0.84375 0.25586 111.52 90.738 45 0 1 0.84375 0.26172 111.52 90.738 45 0 1 0.8418 0.26758 111.52 90.738 45 0 1 0.84179 0.27539 111.52 90.738 45 0 1 0.83985 0.28125 111.52 90.738 45 0 1 0.83984 0.28906 111.52 90.738 45 0 1 0.83789 0.29492 111.52 90.738 45 0 1 0.83594 0.30078 111.52 90.738 45 0 1 0.83594 0.30859 111.52 90.738 45 0 1 0.83593 0.31445 111.52 90.738 45 0 1 0.83399 0.32227 111.52 90.738 45 0 1 0.83203 0.32812 111.52 90.738 45 0 1 0.83008 0.33398 111.52 90.738 45 0 1 0.83008 0.33984 111.52 90.738 45 0 1 0.82812 0.34766 111.52 90.738 45 0 1 0.82617 0.35352 111.52 90.738 45 0 1 0.82422 0.36133 111.52 90.738 45 0 1 0.82422 0.36523 111.52 90.738 45 0 1 0.82031 0.37305 111.52 90.738 45 0 1 0.82031 0.37891 111.52 90.738 45 0 1 0.81641 0.38671 111.52 90.738 45 0 1 0.81641 0.39063 111.52 90.738 45 0 1 0.81445 0.39844 111.52 90.738 45 0 1 0.8125 0.40429 111.52 90.738 45 0 1 0.80859 0.41016 111.52 90.738 45 0 1 0.8086 0.41797 111.52 90.738 45 0 1 0.80469 0.42187 111.52 90.738 45 0 1 0.80273 0.42969 111.52 90.738 45 0 1 0.80273 0.43555 111.52 90.738 45 0 1 0.79688 0.43945 111.52 90.738 45 0 1 0.79687 0.44727 111.52 90.738 45 0 1 0.79493 0.45312 111.52 90.738 45 0 1 0.79101 0.45899 111.52 90.738 45 0 1 0.78906 0.46679 111.52 90.738 45 0 1 0.78516 0.47071 111.52 90.738 45 0 1 0.7832 0.47656 111.52 90.738 45 0 1 0.78125 0.48242 111.52 90.738 45 0 1 0.77735 0.48828 111.52 90.738 45 0 1 0.77539 0.49414 111.52 90.738 45 0 1 0.77148 0.5 111.52 90.738 45 0 1 0.76953 0.50586 111.52 90.738 45 0 1 0.76563 0.50977 111.52 90.738 45 0 1 0.76367 0.51758 111.52 90.738 45 0 1 0.75977 0.52343 111.52 90.738 45 0 1 0.75781 0.52735 111.52 90.738 45 0 1 0.7539 0.5332 111.52 90.738 45 0 1 0.75 0.53906 111.52 90.738 45 0 1 0.74805 0.54492 111.52 90.738 45 0 1 0.74219 0.54883 111.52 90.738 45 0 1 0.74023 0.55469 111.52 90.738 45 0 1 0.73828 0.56055 111.52 90.738 45 0 1 0.73243 0.5664 111.52 90.738 45 0 1 0.73047 0.57227 111.52 90.738 45 0 1 0.72656 0.57617 111.52 90.738 45 0 1 0.7207 0.58008 111.52 90.738 45 0 1 0.71875 0.58789 111.52 90.738 45 0 1 0.71484 0.58984 111.52 90.738 45 0 1 0.71289 0.59766 111.52 90.738 45 0 1 0.70704 0.60156 111.52 90.738 45 0 1 0.70312 0.60742 111.52 90.738 45 0 1 0.69922 0.61133 111.52 90.738 45 0 1 0.69531 0.61524 111.52 90.738 45 0 1 0.69141 0.62109 111.52 90.738 45 0 1 0.6875 0.62695 111.52 90.738 45 0 1 0.68164 0.63086 111.52 90.738 45 0 1 0.67969 0.63477 111.52 90.738 45 0 1 0.67383 0.64062 111.52 90.738 45 0 1 0.66992 0.64454 111.52 90.738 45 0 1 0.66601 0.65039 111.52 90.738 45 0 1 0.66211 0.65234 111.52 90.738 45 0 1 0.22852 0.22851 111.52 90.738 45 0 1 0.65429 0.66016 111.52 90.738 45 0 1 0.65235 0.66406 111.52 90.738 45 0 1 0.64648 0.66993 111.52 90.738 45 0 1 0.64063 0.67187 111.52 90.738 45 0 1 0.63672 0.67774 111.52 90.738 45 0 1 0.63281 0.68164 111.52 90.738 45 0 1 0.6289 0.68554 111.52 90.738 45 0 1 0.62305 0.68946 111.52 90.738 45 0 1 0.61719 0.69336 111.52 90.738 45 0 1 0.61328 0.69921 111.52 90.738 45 0 1 0.60742 0.70118 111.52 90.738 45 0 1 0.60352 0.70703 111.52 90.738 45 0 1 0.59961 0.70898 111.52 90.738 45 0 1 0.59375 0.71289 111.52 90.738 45 0 1 0.58789 0.71875 111.52 90.738 45 0 1 0.58203 0.7207 111.52 90.738 45 0 1 0.57812 0.72461 111.52 90.738 45 0 1 0.57422 0.72852 111.52 90.738 45 0 1 0.56641 0.73242 111.52 90.738 45 0 1 0.5625 0.73633 111.52 90.738 45 0 1 0.55664 0.73828 111.52 90.738 45 0 1 0.55273 0.74219 111.52 90.738 45 0 1 0.54688 0.74609 111.52 90.738 45 0 1 0.54102 0.75 111.52 90.738 45 0 1 0.53515 0.75196 111.52 90.738 45 0 1 0.5293 0.75586 111.52 90.738 45 0 1 0.52539 0.75976 111.52 90.738 45 0 1 0.51758 0.76172 111.52 90.738 45 0 1 0.51367 0.76562 111.52 90.738 45 0 1 0.50781 0.76758 111.52 90.738 45 0 1 0.50195 0.77149 111.52 90.738 45 0 1 0.4961 0.77343 111.52 90.738 45 0 1 0.49023 0.77735 111.52 90.738 45 0 1 0.48438 0.77929 111.52 90.738 45 0 1 0.47851 0.78321 111.52 90.738 45 0 1 0.47266 0.78515 111.52 90.738 45 0 1 0.4668 0.78711 111.52 90.738 45 0 1 0.46093 0.79102 111.52 90.738 45 0 1 0.45508 0.79297 111.52 90.738 45 0 1 0.44922 0.79492 111.52 90.738 45 0 1 0.44336 0.79688 111.52 90.738 45 0 1 0.4375 0.80078 111.52 90.738 45 0 1 0.43164 0.80273 111.52 90.738 45 0 1 0.42383 0.80469 111.52 90.738 45 0 1 0.41992 0.80664 111.52 90.738 45 0 1 0.41211 0.80859 111.52 90.738 45 0 1 0.40625 0.8125 111.52 90.738 45 0 1 0.40039 0.8125 111.52 90.738 45 0 1 0.39453 0.81641 111.52 90.738 45 0 1 0.38867 0.8164 111.52 90.738 45 0 1 0.38086 0.81836 111.52 90.738 45 0 1 0.375 0.82032 111.52 90.738 45 0 1 0.36914 0.82422 111.52 90.738 45 0 1 0.36133 0.82421 111.52 90.738 45 0 1 0.35547 0.82422 111.52 90.738 45 0 1 0.34961 0.82813 111.52 90.738 45 0 1 0.34375 0.82812 111.52 90.738 45 0 1 0.33594 0.83203 111.52 90.738 45 0 1 0.33008 0.83008 111.52 90.738 45 0 1 0.32421 0.83399 111.52 90.738 45 0 1 0.31641 0.83398 111.52 90.738 45 0 1 0.31055 0.83594 111.52 90.738 45 0 1 0.30469 0.83594 111.52 90.738 45 0 1 0.29687 0.83789 111.52 90.738 45 0 1 0.29102 0.83984 111.52 90.738 45 0 1 0.2832 0.83984 111.52 90.738 45 0 1 0.27734 0.8418 111.52 90.738 45 0 1 0.27149 0.8418 111.52 90.738 45 0 1 0.26367 0.84179 111.52 90.738 45 0 1 0.25781 0.84376 111.52 90.738 45 0 1 0.25 0.84374 111.52 90.738 45 0 1 0.24414 0.84376 111.52 90.738 45 0 1 0.23633 0.8457 111.52 90.738 45 0 1 0.23047 0.8457 111.52 90.738 45 0 1 0.22266 0.8457 111.52 90.738 45 0 1 0.21679 0.84766 111.52 90.738 45 0 1 0.20899 0.84766 111.52 90.738 45 0 1 0.20312 0.8457 111.52 90.738 45 0 1 0.19531 0.84766 111.52 90.738 45 0 1 0.18946 0.84765 111.52 90.738 45 0 1 0.18164 0.84766 111.52 90.738 45 0 1 0.17578 0.84961 111.52 90.738 45 0 1 0.16797 0.84765 111.52 90.738 45 0 1 0.16211 0.84766 111.52 90.738 45 0 1 0.15429 0.84766 111.52 90.738 45 0 1 0.14649 0.84765 111.52 90.738 45 0 1 0.14062 0.84571 111.52 90.738 45 0 1 0.13282 0.84765 111.52 90.738 45 0 1 0.12695 0.84571 111.52 90.738 45 0 1 0.11914 0.84765 111.52 90.738 45 0 1 0.11328 0.8457 111.52 90.738 45 0 1 0.10547 0.84376 111.52 90.738 45 0 1 0.09766 0.8457 111.52 90.738 45 0 1 0.09179 0.84375 111.52 90.738 45 0 1 0.08399 0.84375 111.52 90.738 45 0 1 0.07812 0.8418 111.52 90.738 45 0 1 0.07031 0.84179 111.52 90.738 45 0 1 0.0625 0.83985 111.52 90.738 45 0 1 0.05664 0.83984 111.52 90.738 45 0 1 0.04883 0.83984 111.52 90.738 45 0 1 0.04297 0.83594 111.52 90.738 45 0 1 0.03516 0.83789 111.52 90.738 45 0 1 0.02734 0.83399 111.52 90.738 45 0 1 0.02149 0.83593 111.52 90.738 45 0 1 0.01367 0.83203 111.52 90.738 45 0 1 0.00586 0.83204 111.52 90.738 45 0 1 0 0.83007 111.52 90.738 45 0 1-0.00782 0.82813 111.52 90.738 45 0 1-0.01367 0.82617 111.52 90.738 45 0 1-0.02148 0.82617 111.52 90.738 45 0 1-0.0293 0.82422 111.52 90.738 45 0 1-0.03515 0.82227 111.52 90.738 45 0 1-0.04297 0.82031 111.52 90.738 45 0 1-0.05078 0.81836 111.52 90.738 45 0 1-0.05665 0.8164 111.52 90.738 45 0 1-0.0625 0.81446 111.52 90.738 45 0 1-0.07226 0.8125 111.52 90.738 45 0 1-0.07813 0.81054 111.52 90.738 45 0 1-0.08398 0.81055 111.52 90.738 45 0 1-0.0918 0.80469 111.52 90.738 45 0 1-0.09961 0.80469 111.52 90.738 45 0 1-0.10546 0.80273 111.52 90.738 45 0 1-0.11329 0.79883 111.52 90.738 45 0 1-0.12109 0.79883 111.52 90.738 45 0 1-0.12695 0.79492 111.52 90.738 45 0 1-0.13477 0.79102 111.52 90.738 45 0 1-0.14062 0.79101 111.52 90.738 45 0 1-0.14844 0.78711 111.52 90.738 45 0 1-0.1543 0.7832 111.52 90.738 45 0 1-0.16211 0.78321 111.52 90.738 45 0 1-0.16992 0.77929 111.52 90.738 45 0 1-0.17578 0.77539 111.52 90.738 45 0 1-0.18164 0.77344 111.52 90.738 45 0 1-0.18945 0.77149 111.52 90.738 45 0 1-0.19727 0.76757 111.52 90.738 45 0 1-0.20313 0.76368 111.52 90.738 45 0 1-0.21093 0.76171 111.52 90.738 45 0 1-0.2168 0.75782 111.52 90.738 45 0 1-0.22266 0.75586 111.52 90.738 45 0 1-0.23242 0.75195 111.52 90.738 45 0 1-0.23633 0.74805 111.52 90.738 45 0 1-0.24414 0.74609 111.52 90.738 45 0 1-0.25195 0.74219 111.52 90.738 45 0 1-0.25781 0.73828 111.52 90.738 45 0 1-0.26367 0.73437 111.52 90.738 45 0 1-0.27149 0.73047 111.52 90.738 45 0 1-0.27734 0.72852 111.52 90.738 45 0 1-0.28516 0.72461 111.52 90.738 45 0 1-0.29101 0.71875 111.52 90.738 45 0 1-0.29883 0.71679 111.52 90.738 45 0 1-0.30469 0.71289 111.52 90.738 45 0 1-0.31055 0.70899 111.52 90.738 45 0 1-0.31836 0.70508 111.52 90.738 45 0 1-0.32421 0.70117 111.52 90.738 45 0 1-0.33008 0.69726 111.52 90.738 45 0 1-0.33789 0.69336 111.52 90.738 45 0 1-0.34375 0.68946 111.52 90.738 45 0 1-0.34961 0.68359 111.52 90.738 45 0 1-0.35547 0.68164 111.52 90.738 45 0 1-0.36328 0.67578 111.52 90.738 45 0 1-0.36914 0.67188 111.52 90.738 45 0 1-0.37696 0.66797 111.52 90.738 45 0 1-0.38086 0.66406 111.52 90.738 45 0 1-0.38867 0.6582 111.52 90.738 45 0 1-0.39453 0.6543 111.52 90.738 45 0 1-0.40234 0.65039 111.52 90.738 45 0 1-0.40625 0.64648 111.52 90.738 45 0 1-0.41406 0.64063 111.52 90.738 45 0 1-0.41797 0.63476 111.52 90.738 45 0 1-0.42579 0.63282 111.52 90.738 45 0 1-0.43164 0.62695 111.52 90.738 45 0 1-0.4375 0.62109 111.52 90.738 45 0 1-0.44336 0.61719 111.52 90.738 45 0 1-0.45117 0.61133 111.52 90.738 45 0 1-0.45507 0.60742 111.52 90.738 45 0 1-0.4629 0.60352 111.52 90.738 45 0 1-0.46679 0.59765 111.52 90.738 45 0 1-0.47266 0.5918 111.52 90.738 45 0 1-0.48047 0.58789 111.52 90.738 45 0 1-0.48437 0.58203 111.52 90.738 45 0 1-0.49219 0.57617 111.52 90.738 45 0 1-0.49609 0.57227 111.52 90.738 45 0 1-0.50196 0.56641 111.52 90.738 45 0 1-0.50781 0.56054 111.52 90.738 45 0 1-0.51367 0.55664 111.52 90.738 45 0 1-0.51953 0.55078 111.52 90.738 45 0 1-0.52539 0.54493 111.52 90.738 45 0 1-0.53125 0.53906 111.52 90.738 45 0 1-0.1836 0.18555 111.52 90.738 45 0 1-0.53906 0.5332 111.52 90.738 45 0 1-0.54297 0.52734 111.52 90.738 45 0 1-0.54883 0.52149 111.52 90.738 45 0 1-0.55468 0.51562 111.52 90.738 45 0 1-0.5586 0.50977 111.52 90.738 45 0 1-0.56445 0.5039 111.52 90.738 45 0 1-0.57031 0.49805 111.52 90.738 45 0 1-0.57422 0.49414 111.52 90.738 45 0 1-0.58203 0.48633 111.52 90.738 45 0 1-0.58399 0.48242 111.52 90.738 45 0 1-0.59179 0.47461 111.52 90.738 45 0 1-0.59571 0.4707 111.52 90.738 45 0 1-0.59961 0.46289 111.52 90.738 45 0 1-0.60547 0.45704 111.52 90.738 45 0 1-0.61132 0.45312 111.52 90.738 45 0 1-0.61524 0.44531 111.52 90.738 45 0 1-0.61914 0.43946 111.52 90.738 45 0 1-0.625 0.43359 111.52 90.738 45 0 1-0.63086 0.42774 111.52 90.738 45 0 1-0.63476 0.42187 111.52 90.738 45 0 1-0.63868 0.41602 111.52 90.738 45 0 1-0.64453 0.4082 111.52 90.738 45 0 1-0.64843 0.4043 111.52 90.738 45 0 1-0.65235 0.39648 111.52 90.738 45 0 1-0.6582 0.39063 111.52 90.738 45 0 1-0.66016 0.38476 111.52 90.738 45 0 1-0.66797 0.37695 111.52 90.738 45 0 1-0.66992 0.3711 111.52 90.738 45 0 1-0.67578 0.36523 111.52 90.738 45 0 1-0.67773 0.35938 111.52 90.738 45 0 1-0.6836 0.35156 111.52 90.738 45 0 1-0.6875 0.34766 111.52 90.738 45 0 1-0.6914 0.33789 111.52 90.738 45 0 1-0.69532 0.33398 111.52 90.738 45 0 1-0.70117 0.32617 111.52 90.738 45 0 1-0.70312 0.32032 111.52 90.738 45 0 1-0.70703 0.3125 111.52 90.738 45 0 1-0.71289 0.30664 111.52 90.738 45 0 1-0.71485 0.30078 111.52 90.738 45 0 1-0.71875 0.29297 111.52 90.738 45 0 1-0.72266 0.28711 111.52 90.738 45 0 1-0.72656 0.28124 111.52 90.738 45 0 1-0.73047 0.27344 111.52 90.738 45 0 1-0.73437 0.26563 111.52 90.738 45 0 1-0.73633 0.26172 111.52 90.738 45 0 1-0.74023 0.25195 111.52 90.738 45 0 1-0.74414 0.24805 111.52 90.738 45 0 1-0.74805 0.24023 111.52 90.738 45 0 1-0.75 0.23242 111.52 90.738 45 0 1-0.75391 0.22656 111.52 90.738 45 0 1-0.75781 0.21876 111.52 90.738 45 0 1-0.75977 0.21289 111.52 90.738 45 0 1-0.76367 0.20507 111.52 90.738 45 0 1-0.76758 0.19922 111.52 90.738 45 0 1-0.76953 0.19141 111.52 90.738 45 0 1-0.77148 0.18555 111.52 90.738 45 0 1-0.77539 0.17968 111.52 90.738 45 0 1-0.77735 0.16992 111.52 90.738 45 0 1-0.78125 0.16407 111.52 90.738 45 0 1-0.78515 0.1582 111.52 90.738 45 0 1-0.78516 0.15039 111.52 90.738 45 0 1-0.78906 0.14453 111.52 90.738 45 0 1-0.79102 0.13477 111.52 90.738 45 0 1-0.79492 0.13086 111.52 90.738 45 0 1-0.79687 0.12304 111.52 90.738 45 0 1-0.79883 0.11524 111.52 90.738 45 0 1-0.80078 0.10742 111.52 90.738 45 0 1-0.80274 0.10156 111.52 90.738 45 0 1-0.80664 0.09571 111.52 90.738 45 0 1-0.80859 0.08593 111.52 90.738 45 0 1-0.80859 0.08204 111.52 90.738 45 0 1-0.8125 0.07226 111.52 90.738 45 0 1-0.81446 0.06641 111.52 90.738 45 0 1-0.8164 0.06054 111.52 90.738 45 0 1-0.81836 0.05079 111.52 90.738 45 0 1-0.81836 0.04687 111.52 90.738 45 0 1-0.82227 0.03711 111.52 90.738 45 0 1-0.82226 0.03125 111.52 90.738 45 0 1-0.82618 0.02344 111.52 90.738 45 0 1-0.82617 0.01757 111.52 90.738 45 0 1-0.82812 0.00977 111.52 90.738 45 0 1-0.83008 0.00195 111.52 90.738 45 0 1-0.83008-0.0039 111.52 90.738 45 0 1-0.83203-0.01172 111.52 90.738 45 0 1-0.83399-0.01758 111.52 90.738 45 0 1-0.83593-0.02539 111.52 90.738 45 0 1-0.83594-0.0332 111.52 90.738 45 0 1-0.83594-0.03907 111.52 90.738 45 0 1-0.83984-0.04687 111.52 90.738 45 0 1-0.83789-0.05273 111.52 90.738 45 0 1-0.8418-0.0625 111.52 90.738 45 0 1-0.83984-0.06641 111.52 90.738 45 0 1-0.84375-0.07617 111.52 90.738 45 0 1-0.8418-0.08203 111.52 90.738 45 0 1-0.84375-0.08789 111.52 90.738 45 0 1-0.84375-0.09571 111.52 90.738 45 0 1-0.8457-0.10351 111.52 90.738 45 0 1-0.84571-0.10938 111.52 90.738 45 0 1-0.8457-0.11719 111.52 90.738 45 0 1-0.8457-0.125 111.52 90.738 45 0 1-0.84766-0.13086 111.52 90.738 45 0 1-0.84765-0.13867 111.52 90.738 45 0 1-0.84766-0.14453 111.52 90.738 45 0 1-0.84766-0.15234 111.52 90.738 45 0 1-0.84765-0.15821 111.52 90.738 45 0 1-0.84766-0.16601 111.52 90.738 45 0 1-0.84766-0.17188 111.52 90.738 45 0 1-0.84765-0.17968 111.52 90.738 45 0 1-0.84766-0.1875 111.52 90.738 45 0 1-0.84765-0.19336 111.52 90.738 45 0 1-0.84766-0.19922 111.52 90.738 45 0 1-0.8457-0.20899 111.52 90.738 45 0 1-0.84766-0.21289 111.52 90.738 45 0 1-0.8457-0.2207 111.52 90.738 45 0 1-0.84766-0.22852 111.52 90.738 45 0 1-0.84375-0.23437 111.52 90.738 45 0 1-0.8457-0.24219 111.52 90.738 45 0 1-0.84375-0.24805 111.52 90.738 45 0 1-0.84375-0.2539 111.52 90.738 45 0 1-0.84375-0.26172 111.52 90.738 45 0 1-0.8418-0.26758 111.52 90.738 45 0 1-0.83984-0.27539 111.52 90.738 45 0 1-0.8418-0.28125 111.52 90.738 45 0 1-0.83789-0.28906 111.52 90.738 45 0 1-0.83984-0.29492 111.52 90.738 45 0 1-0.83594-0.30078 111.52 90.738 45 0 1-0.83594-0.3086 111.52 90.738 45 0 1-0.83594-0.31445 111.52 90.738 45 0 1-0.83398-0.32227 111.52 90.738 45 0 1-0.83203-0.32812 111.52 90.738 45 0 1-0.83008-0.33399 111.52 90.738 45 0 1-0.83008-0.33984 111.52 90.738 45 0 1-0.82812-0.34766 111.52 90.738 45 0 1-0.82618-0.35351 111.52 90.738 45 0 1-0.82421-0.36133 111.52 90.738 45 0 1-0.82227-0.36523 111.52 90.738 45 0 1-0.82227-0.37305 111.52 90.738 45 0 1-0.82031-0.37891 111.52 90.738 45 0 1-0.8164-0.38672 111.52 90.738 45 0 1-0.81641-0.39062 111.52 90.738 45 0 1-0.81445-0.39844 111.52 90.738 45 0 1-0.81055-0.4043 111.52 90.738 45 0 1-0.81055-0.4121 111.52 90.738 45 0 1-0.80859-0.41602 111.52 90.738 45 0 1-0.80469-0.42188 111.52 90.738 45 0 1-0.80273-0.42968 111.52 90.738 45 0 1-0.80078-0.43555 111.52 90.738 45 0 1-0.79883-0.44141 111.52 90.738 45 0 1-0.79688-0.44531 111.52 90.738 45 0 1-0.79297-0.45312 111.52 90.738 45 0 1-0.79297-0.46094 111.52 90.738 45 0 1-0.7871-0.46485 111.52 90.738 45 0 1-0.78711-0.4707 111.52 90.738 45 0 1-0.78321-0.47656 111.52 90.738 45 0 1-0.78125-0.48242 111.52 90.738 45 0 1-0.77734-0.48828 111.52 90.738 45 0 1-0.77539-0.49414 111.52 90.738 45 0 1-0.77149-0.5 111.52 90.738 45 0 1-0.76953-0.50586 111.52 90.738 45 0 1-0.76562-0.50977 111.52 90.738 45 0 1-0.76367-0.51758 111.52 90.738 45 0 1-0.75977-0.52343 111.52 90.738 45 0 1-0.75781-0.52735 111.52 90.738 45 0 1-0.75391-0.5332 111.52 90.738 45 0 1-0.75-0.53906 111.52 90.738 45 0 1-0.74609-0.54493 111.52 90.738 45 0 1-0.74414-0.54882 111.52 90.738 45 0 1-0.74024-0.55664 111.52 90.738 45 0 1-0.73828-0.56055 111.52 90.738 45 0 1-0.73242-0.56445 111.52 90.738 45 0 1-0.73047-0.57227 111.52 90.738 45 0 1-0.72461-0.57617 111.52 90.738 45 0 1-0.72265-0.58008 111.52 90.738 45 0 1-0.71875-0.58789 111.52 90.738 45 0 1-0.71485-0.5918 111.52 90.738 45 0 1-0.71094-0.5957 111.52 90.738 45 0 1-0.70898-0.60156 111.52 90.738 45 0 1-0.70312-0.60743 111.52 90.738 45 0 1-0.69922-0.61132 111.52 90.738 45 0 1-0.69532-0.61524 111.52 90.738 45 0 1-0.6914-0.62304 111.52 90.738 45 0 1-0.68555-0.625 111.52 90.738 45 0 1-0.68359-0.63086 111.52 90.738 45 0 1-0.67969-0.63477 111.52 90.738 45 0 1-0.67383-0.64063 111.52 90.738 45 0 1-0.66992-0.64453 111.52 90.738 45 0 1-0.66602-0.65039 111.52 90.738 45 0 1-0.66211-0.65429 111.52 90.738 45 0 1-0.22851-0.22657 111.52 90.738 45 0 1-0.6543-0.66015 111.52 90.738 45 0 1-0.65234-0.66407 111.52 90.738 45 0 1-0.64453-0.66992 111.52 90.738 45 0 1-0.64258-0.67187 111.52 90.738 45 0 1-0.63672-0.67774 111.52 90.738 45 0 1-0.63281-0.68164 111.52 90.738 45 0 1-0.62696-0.68554 111.52 90.738 45 0 1-0.62304-0.68946 111.52 90.738 45 0 1-0.61914-0.69531 111.52 90.738 45 0 1-0.61328-0.69726 111.52 90.738 45 0 1-0.60743-0.70118 111.52 90.738 45 0 1-0.60351-0.70703 111.52 90.738 45 0 1-0.59961-0.70898 111.52 90.738 45 0 1-0.5918-0.71289 111.52 90.738 45 0 1-0.58984-0.71875 111.52 90.738 45 0 1-0.58203-0.72071 111.52 90.738 45 0 1-0.57813-0.72461 111.52 90.738 45 0 1-0.57422-0.72851 111.52 90.738 45 0 1-0.5664-0.73242 111.52 90.738 45 0 1-0.5625-0.73633 111.52 90.738 45 0 1-0.55664-0.73828 111.52 90.738 45 0 1-0.55274-0.74219 111.52 90.738 45 0 1-0.54492-0.74609 111.52 90.738 45 0 1-0.54102-0.75 111.52 90.738 45 0 1-0.53711-0.75196 111.52 90.738 45 0 1-0.52929-0.75586 111.52 90.738 45 0 1-0.52344-0.75976 111.52 90.738 45 0 1-0.51953-0.76172 111.52 90.738 45 0 1-0.51367-0.76563 111.52 90.738 45 0 1-0.50781-0.76757 111.52 90.738 45 0 1-0.50196-0.77149 111.52 90.738 45 0 1-0.49609-0.77344 111.52 90.738 45 0 1-0.49024-0.77734 111.52 90.738 45 0 1-0.48437-0.7793 111.52 90.738 45 0 1-0.47852-0.7832 111.52 90.738 45 0 1-0.47265-0.78516 111.52 90.738 45 0 1-0.4668-0.7871 111.52 90.738 45 0 1-0.46094-0.79102 111.52 90.738 45 0 1-0.45508-0.79297 111.52 90.738 45 0 1-0.44921-0.79492 111.52 90.738 45 0 1-0.44336-0.79883 111.52 90.738 45 0 1-0.4375-0.79883 111.52 90.738 45 0 1-0.43164-0.80273 111.52 90.738 45 0 1-0.42383-0.80469 111.52 90.738 45 0 1-0.41992-0.80664 111.52 90.738 45 0 1-0.41211-0.81055 111.52 90.738 45 0 1-0.40625-0.81054 111.52 90.738 45 0 1-0.40039-0.8125 111.52 90.738 45 0 1-0.39454-0.81641 111.52 90.738 45 0 1-0.38671-0.81641 111.52 90.738 45 0 1-0.38282-0.81836 111.52 90.738 45 0 1-0.375-0.82226 111.52 90.738 45 0 1-0.36914-0.82227 111.52 90.738 45 0 1-0.36133-0.82422 111.52 90.738 45 0 1-0.35546-0.82421 111.52 90.738 45 0 1-0.34961-0.82813 111.52 90.738 45 0 1-0.34375-0.82812 111.52 90.738 45 0 1-0.33594-0.83204 111.52 90.738 45 0 1-0.33008-0.83007 111.52 90.738 45 0 1-0.32422-0.83399 111.52 90.738 45 0 1-0.3164-0.83398 111.52 90.738 45 0 1-0.31055-0.83594 111.52 90.738 45 0 1-0.30469-0.83789 111.52 90.738 45 0 1-0.29687-0.83789 111.52 90.738 45 0 1-0.29102-0.83789 111.52 90.738 45 0 1-0.2832-0.83985 111.52 90.738 45 0 1-0.27735-0.84179 111.52 90.738 45 0 1-0.27148-0.8418 111.52 90.738 45 0 1-0.26367-0.8418 111.52 90.738 45 0 1-0.25781-0.84375 111.52 90.738 45 0 1-0.25-0.84375 111.52 90.738 45 0 1-0.24415-0.84375 111.52 90.738 45 0 1-0.23632-0.8457 111.52 90.738 45 0 1-0.23047-0.8457 111.52 90.738 45 0 1-0.22266-0.84766 111.52 90.738 45 0 1-0.2168-0.8457 111.52 90.738 45 0 1-0.20898-0.84766 111.52 90.738 45 0 1-0.20312-0.8457 111.52 90.738 45 0 1-0.19532-0.84766 111.52 90.738 45 0 1-0.18945-0.84765 111.52 90.738 45 0 1-0.18164-0.84766 111.52 90.738 45 0 1-0.17578-0.84961 111.52 90.738 45 0 1-0.16797-0.84766 111.52 90.738 45 0 1-0.16211-0.84765 111.52 90.738 45 0 1-0.1543-0.84766 111.52 90.738 45 0 1-0.14648-0.84765 111.52 90.738 45 0 1-0.14063-0.84571 111.52 90.738 45 0 1-0.13281-0.84765 111.52 90.738 45 0 1-0.12695-0.84766 111.52 90.738 45 0 1-0.11914-0.8457 111.52 90.738 45 0 1-0.11328-0.84571 111.52 90.738 45 0 1-0.10547-0.84375 111.52 90.738 45 0 1-0.09766-0.8457 111.52 90.738 45 0 1-0.0918-0.84375 111.52 90.738 45 0 1-0.08398-0.84375 111.52 90.738 45 0 1-0.07813-0.8418 111.52 90.738 45 0 1-0.07031-0.84179 111.52 90.738 45 0 1-0.0625-0.83985 111.52 90.738 45 0 1-0.05664-0.83984 111.52 90.738 45 0 1-0.04883-0.83984 111.52 90.738 45 0 1-0.04297-0.83789 111.52 90.738 45 0 1-0.0332-0.83594 111.52 90.738 45 0 1-0.0293-0.83594 111.52 90.738 45 0 1-0.01953-0.83398 111.52 90.738 45 0 1-0.01562-0.83204 111.52 90.738 45 0 1-0.00586-0.83203 111.52 90.738 45 0 1 0-0.83007 111.52 90.738 45 0 1 0.00781-0.82813 111.52 90.738 45 0 1 0.01367-0.82617 111.52 90.738 45 0 1 0.02149-0.82617 111.52 90.738 45 0 1 0.02929-0.82422 111.52 90.738 45 0 1 0.03516-0.82227 111.52 90.738 45 0 1 0.04297-0.82031 111.52 90.738 45 0 1 0.05078-0.81836 111.52 90.738 45 0 1 0.05664-0.81641 111.52 90.738 45 0 1 0.06445-0.81445 111.52 90.738 45 0 1 0.07032-0.8125 111.52 90.738 45 0 1 0.07812-0.8125 111.52 90.738 45 0 1 0.08399-0.80859 111.52 90.738 45 0 1 0.09375-0.80664 111.52 90.738 45 0 1 0.09765-0.80274 111.52 90.738 45 0 1 0.10742-0.80273 111.52 90.738 45 0 1 0.11329-0.79883 111.52 90.738 45 0 1 0.11914-0.79883 111.52 90.738 45 0 1 0.12695-0.79492 111.52 90.738 45 0 1 0.13477-0.79102 111.52 90.738 45 0 1 0.14062-0.79101 111.52 90.738 45 0 1 0.14844-0.78711 111.52 90.738 45 0 1 0.15429-0.78516 111.52 90.738 45 0 1 0.16211-0.78125 111.52 90.738 45 0 1 0.16993-0.77929 111.52 90.738 45 0 1 0.17578-0.77539 111.52 90.738 45 0 1 0.18164-0.77344 111.52 90.738 45 0 1 0.18945-0.77149 111.52 90.738 45 0 1 0.19727-0.76757 111.52 90.738 45 0 1 0.20312-0.76368 111.52 90.738 45 0 1 0.21094-0.76172 111.52 90.738 45 0 1 0.2168-0.75781 111.52 90.738 45 0 1 0.22461-0.75586 111.52 90.738 45 0 1 0.23046-0.75195 111.52 90.738 45 0 1 0.23633-0.74805 111.52 90.738 45 0 1 0.24414-0.74609 111.52 90.738 45 0 1 0.25196-0.74219 111.52 90.738 45 0 1 0.25781-0.73828 111.52 90.738 45 0 1 0.26367-0.73437 111.52 90.738 45 0 1 0.27148-0.73047 111.52 90.738 45 0 1 0.2793-0.72852 111.52 90.738 45 0 1 0.2832-0.72461 111.52 90.738 45 0 1 0.29102-0.7207 111.52 90.738 45 0 1 0.29883-0.71485 111.52 90.738 45 0 1 0.30469-0.71289 111.52 90.738 45 0 1 0.31054-0.70898 111.52 90.738 45 0 1 0.31836-0.70508 111.52 90.738 45 0 1 0.32422-0.70117 111.52 90.738 45 0 1 0.33008-0.69727 111.52 90.738 45 0 1 0.33789-0.69336 111.52 90.738 45 0 1 0.34375-0.68945 111.52 90.738 45 0 1 0.34961-0.68555 111.52 90.738 45 0 1 0.35742-0.67968 111.52 90.738 45 0 1 0.36133-0.67578 111.52 90.738 45 0 1 0.37109-0.67188 111.52 90.738 45 0 1 0.375-0.66797 111.52 90.738 45 0 1 0.38282-0.66406 111.52 90.738 45 0 1 0.38671-0.6582 111.52 90.738 45 0 1 0.39453-0.6543 111.52 90.738 45 0 1 0.40235-0.65039 111.52 90.738 45 0 1 0.40625-0.64649 111.52 90.738 45 0 1 0.41406-0.64062 111.52 90.738 45 0 1 0.41797-0.63672 111.52 90.738 45 0 1 0.42578-0.63086 111.52 90.738 45 0 1 0.43164-0.62695 111.52 90.738 45 0 1 0.4375-0.6211 111.52 90.738 45 0 1 0.44531-0.61718 111.52 90.738 45 0 1 0.44922-0.61328 111.52 90.738 45 0 1 0.45508-0.60743 111.52 90.738 45 0 1 0.46289-0.60156 111.52 90.738 45 0 1 0.4668-0.59765 111.52 90.738 45 0 1 0.47461-0.5918 111.52 90.738 45 0 1 0.47851-0.58789 111.52 90.738 45 0 1 0.48438-0.58203 111.52 90.738 45 0 1 0.49219-0.57618 111.52 90.738 45 0 1 0.49609-0.57226 111.52 90.738 45 0 1 0.50195-0.56641 111.52 90.738 45 0 1 0.50782-0.56054 111.52 90.738 45 0 1 0.51367-0.55665 111.52 90.738 45 0 1 0.51953-0.55078 111.52 90.738 45 0 1 0.52539-0.54492 111.52 90.738 45 0 1 0.53125-0.53906 111.52 90.738 45 0 1 0.18555-0.1875 111.52 90.738 45 0 1 0.53711-0.53125 111.52 90.738 45 0 1 0.54296-0.52734 111.52 90.738 45 0 1 0.54883-0.52149 111.52 90.738 45 0 1 0.55469-0.51562 111.52 90.738 45 0 1 0.55859-0.50977 111.52 90.738 45 0 1 0.56446-0.50391 111.52 90.738 45 0 1 0.57031-0.49804 111.52 90.738 45 0 1 0.57617-0.49414 111.52 90.738 45 0 1 0.58008-0.48633 111.52 90.738 45 0 1 0.58398-0.48242 111.52 90.738 45 0 1 0.5918-0.47461 111.52 90.738 45 0 1 0.5957-0.47071 111.52 90.738 45 0 1 0.59961-0.46289 111.52 90.738 45 0 1 0.60547-0.45898 111.52 90.738 45 0 1 0.61133-0.45117 111.52 90.738 45 0 1 0.61523-0.44531 111.52 90.738 45 0 1 0.6211-0.43946 111.52 90.738 45 0 1 0.625-0.43359 111.52 90.738 45 0 1 0.6289-0.42774 111.52 90.738 45 0 1 0.63477-0.42187 111.52 90.738 45 0 1 0.63867-0.41602 111.52 90.738 45 0 1 0.64453-0.4082 111.52 90.738 45 0 1 0.64844-0.4043 111.52 90.738 45 0 1 0.65234-0.39648 111.52 90.738 45 0 1 0.65821-0.39063 111.52 90.738 45 0 1 0.66211-0.38476 111.52 90.738 45 0 1 0.66601-0.37695 111.52 90.738 45 0 1 0.66992-0.3711 111.52 90.738 45 0 1 0.67579-0.36523 111.52 90.738 45 0 1 0.67773-0.35938 111.52 90.738 45 0 1 0.68359-0.35352 111.52 90.738 45 0 1 0.6875-0.3457 111.52 90.738 45 0 1 0.69141-0.33789 111.52 90.738 45 0 1 0.69727-0.33398 111.52 90.738 45 0 1 0.69921-0.32617 111.52 90.738 45 0 1 0.70313-0.32031 111.52 90.738 45 0 1 0.70703-0.3125 111.52 90.738 45 0 1 0.71289-0.30664 111.52 90.738 45 0 1 0.71484-0.30078 111.52 90.738 45 0 1 0.71876-0.29297 111.52 90.738 45 0 1 0.72265-0.28711 111.52 90.738 45 0 1 0.72656-0.28125 111.52 90.738 45 0 1 0.73047-0.27344 111.52 90.738 45 0 1 0.73438-0.26758 111.52 90.738 45 0 1 0.73633-0.25977 111.52 90.738 45 0 1 0.74023-0.25391 111.52 90.738 45 0 1 0.74414-0.24609 111.52 90.738 45 0 1 0.74805-0.24023 111.52 90.738 45 0 1 0.75-0.23242 111.52 90.738 45 0 1 0.7539-0.22656 111.52 90.738 45 0 1 0.75782-0.21875 111.52 90.738 45 0 1 0.75976-0.21289 111.52 90.738 45 0 1 0.76367-0.20508 111.52 90.738 45 0 1 0.76758-0.19922 111.52 90.738 45 0 1 0.76953-0.19336 111.52 90.738 45 0 1 0.77149-0.18359 111.52 90.738 45 0 1 0.77539-0.17969 111.52 90.738 45 0 1 0.77929-0.16992 111.52 90.738 45 0 1 0.7793-0.16406 111.52 90.738 45 0 1 0.78516-0.1582 111.52 90.738 45 0 1 0.78515-0.15039 111.52 90.738 45 0 1 0.78907-0.14453 111.52 90.738 45 0 1 0.79297-0.13672 111.52 90.738 45 0 1 0.79296-0.12891 111.52 90.738 45 0 1 0.79688-0.12305 111.52 90.738 45 0 1 0.79883-0.11523 111.52 90.738 45 0 1 0.80078-0.10742 111.52 90.738 45 0 1 0.80469-0.10156 111.52 90.738 45 0 1 0.80468-0.095704 111.52 90.738 45 0 1 0.8086-0.08789 111.52 90.738 45 0 1 0.80859-0.080078 111.52 90.738 45 0 1 0.8125-0.072266 111.52 90.738 45 0 1 0.81445-0.066406 111.52 90.738 45 0 1 0.81641-0.060547 111.52 90.738 45 0 1 0.81836-0.050781 111.52 90.738 45 0 1 0.81836-0.046875 111.52 90.738 45 0 1 0.82226-0.03711 111.52 90.738 45 0 1 0.82422-0.03125 111.52 90.738 45 0 1 0.82422-0.023437 111.52 90.738 45 0 1 0.82617-0.017578 111.52 90.738 45 0 1 0.82813-0.009766 111.52 90.738 45 0 1 0.83008-0.001953z" fill="#333" fill-rule="evenodd" stroke-width="1.4307"/>
    <path d="m26.592 21.412c4.0364-1.8689 8.0724-3.7377 12.58-4.3867s9.4854-0.07851 14.463 0.49196" fill="#e6e6e6"/>
  </g>
  <rect transform="rotate(45)" x="88.713" y="4.1929" width="8.1283" height="61.696" ry="3.0915" fill="#333" stroke-width=".22394"/>
</svg>
