<?xml version="1.0" encoding="UTF-8" standalone="no"?>
<svg
   xmlns:dc="http://purl.org/dc/elements/1.1/"
   xmlns:cc="http://creativecommons.org/ns#"
   xmlns:rdf="http://www.w3.org/1999/02/22-rdf-syntax-ns#"
   xmlns:svg="http://www.w3.org/2000/svg"
   xmlns="http://www.w3.org/2000/svg"
   xmlns:sodipodi="http://sodipodi.sourceforge.net/DTD/sodipodi-0.dtd"
   xmlns:inkscape="http://www.inkscape.org/namespaces/inkscape"
   sodipodi:docname="songster-favicon.svg"
   inkscape:version="1.0 (4035a4f, 2020-05-01)"
   id="svg8"
   version="1.1"
   viewBox="0 0 79.374998 79.375002"
   height="300"
   width="300">
  <defs
     id="defs2" />
  <sodipodi:namedview
     inkscape:window-maximized="0"
     inkscape:window-y="46"
     inkscape:window-x="2340"
     inkscape:window-height="1155"
     inkscape:window-width="1610"
     showgrid="false"
     inkscape:document-rotation="0"
     inkscape:current-layer="layer1"
     inkscape:document-units="mm"
     inkscape:cy="182.28294"
     inkscape:cx="99.904952"
     inkscape:zoom="1.979899"
     inkscape:pageshadow="2"
     inkscape:pageopacity="0.0"
     borderopacity="1.0"
     bordercolor="#666666"
     pagecolor="#ffffff"
     id="base"
     units="px" />
  <metadata
     id="metadata5">
    <rdf:RDF>
      <cc:Work
         rdf:about="">
        <dc:format>image/svg+xml</dc:format>
        <dc:type
           rdf:resource="http://purl.org/dc/dcmitype/StillImage" />
        <dc:title />
      </cc:Work>
    </rdf:RDF>
  </metadata>
  <g
     inkscape:label="box"
     id="layer3"
     inkscape:groupmode="layer">
    <rect
       y="0.93109131"
       x="0.93109131"
       height="77.512817"
       width="77.512817"
       id="rect848"
       style="fill:#c86fff;fill-opacity:1;fill-rule:evenodd;stroke:#000000;stroke-width:1.86218;stroke-miterlimit:4;stroke-dasharray:none;stroke-opacity:1" />
  </g>
  <g
     inkscape:label="low S"
     id="layer2"
     inkscape:groupmode="layer" />
  <g
     id="layer1"
     inkscape:groupmode="layer"
     inkscape:label="top S">
    <path
       d="m 23.44882,48.113147 h 6.199171 c 0.293578,2.511698 0.971081,4.578136 2.032507,6.199341 1.084009,1.598364 2.755188,2.89988 5.013552,3.904559 2.258336,0.981853 4.798987,1.47278 7.621924,1.47278 2.506776,0 4.719955,-0.376769 6.639547,-1.130264 1.919605,-0.75351 3.342359,-1.781029 4.268287,-3.082558 0.948512,-1.324355 1.422767,-2.762868 1.422767,-4.315581 0,-1.575511 -0.451673,-2.945532 -1.355018,-4.110063 -0.903345,-1.187343 -2.393848,-2.180609 -4.471534,-2.979785 -1.332422,-0.525179 -4.279573,-1.335782 -8.841439,-2.431793 -4.561866,-1.118851 -7.757436,-2.169197 -9.586696,-3.151036 -2.371278,-1.255863 -4.144081,-2.808548 -5.318422,-4.658083 -1.151758,-1.87236 -1.727637,-3.961652 -1.727637,-6.26786 0,-2.534525 0.71139,-4.897826 2.134144,-7.089848 1.422753,-2.214863 3.50044,-3.893147 6.233045,-5.034838 2.732592,-1.141677 5.770081,-1.712522 9.112454,-1.712522 3.681103,0 6.921834,0.605098 9.722188,1.815281 2.822951,1.187357 4.990956,2.945533 6.504041,5.274581 1.513112,2.329034 2.326112,4.966317 2.43904,7.911877 h -6.300807 c -0.338758,-3.173876 -1.490516,-5.091916 -3.455287,-6.713121 -1.942189,-1.621177 -4.821565,-2.431779 -8.63818,-2.431779 -3.974708,0 -6.876673,0.742096 -8.705946,2.226289 -1.806691,1.461353 -2.710023,3.230968 -2.710023,5.308833 0,1.803869 0.643628,3.288048 1.930883,4.452565 1.264673,1.164531 4.561866,2.363287 9.89158,3.59631 5.352304,1.210184 9.022116,2.271956 11.00947,3.185303 2.890674,1.347195 5.02483,3.059718 6.402418,5.137582 1.377601,2.055025 2.066395,4.429739 2.066395,7.124115 0,2.671537 -0.756543,5.194675 -2.269642,7.569362 -1.513098,2.351874 -3.692395,4.189982 -6.537928,5.514351 -2.822951,1.301515 -6.007216,1.952266 -9.552816,1.952266 -4.494131,0 -8.265579,-0.662164 -11.314347,-1.986533 -3.026184,-1.324341 -5.40874,-3.310874 -7.147668,-5.959584 -1.716346,-2.671536 -2.619691,-6.233593 -2.710023,-9.590147 z"
       style="font-style:normal;font-variant:normal;font-weight:normal;font-stretch:normal;font-size:51.8641px;line-height:1.25;font-family:Arial;-inkscape-font-specification:Arial;fill:#c4c8fc;fill-opacity:1;stroke:none;stroke-width:1.74399"
       id="path844"
       sodipodi:nodetypes="ccccsscscccccscsscscccscsccccsccsccc" />
    <g
       style="font-style:normal;font-weight:normal;font-size:51.8641px;line-height:1.25;font-family:sans-serif;fill:#000000;fill-opacity:1;stroke:none;stroke-width:1.2966"
       id="text835"
       transform="matrix(1.3376579,0,0,1.3524791,-66.776165,-146.11652)"
       aria-label="S">
      <path
         sodipodi:nodetypes="ccccsscscccccscsscscccscsccccsccsccc"
         id="path841"
         style="font-style:normal;font-variant:normal;font-weight:normal;font-stretch:normal;font-family:Arial;-inkscape-font-specification:Arial;stroke-width:1.2966"
         d="m 63.758147,143.61011 h 4.634341 c 0.219477,1.85711 0.725962,3.385 1.519456,4.58369 0.810377,1.1818 2.059707,2.14412 3.747992,2.88696 1.688285,0.72597 3.587605,1.08895 5.69796,1.08895 1.873996,0 3.528515,-0.27857 4.963557,-0.8357 1.435042,-0.55713 2.498661,-1.31686 3.190858,-2.27919 0.709079,-0.9792 1.063619,-2.04282 1.063619,-3.19086 0,-1.16491 -0.337657,-2.17788 -1.012971,-3.03891 -0.675314,-0.87791 -1.789582,-1.61231 -3.342803,-2.20321 -0.996088,-0.38831 -3.199299,-0.98765 -6.609634,-1.79802 -3.410335,-0.82726 -5.799258,-1.60387 -7.166768,-2.32983 -1.772699,-0.92856 -3.098002,-2.07659 -3.97591,-3.4441 -0.861025,-1.38439 -1.291538,-2.92918 -1.291538,-4.63435 0,-1.87399 0.53181,-3.62137 1.595429,-5.24212 1.063619,-1.63763 2.616841,-2.87852 4.659665,-3.72267 2.042825,-0.84414 4.313567,-1.26621 6.812228,-1.26621 2.751904,0 5.174592,0.4474 7.268065,1.34219 2.110356,0.87791 3.731109,2.17788 4.86226,3.89993 1.131151,1.72205 1.738933,3.67202 1.823347,5.84991 h -4.710314 c -0.253243,-2.34671 -1.114268,-3.76487 -2.583075,-4.96356 -1.451925,-1.19868 -3.604488,-1.79802 -6.457689,-1.79802 -2.971381,0 -5.140826,0.54869 -6.508336,1.64608 -1.350628,1.0805 -2.025942,2.38892 -2.025942,3.92526 0,1.33375 0.481161,2.43113 1.443483,3.29215 0.945439,0.86103 3.410335,1.74738 7.394687,2.65905 4.001234,0.89479 6.744696,1.67985 8.230387,2.35516 2.161004,0.99609 3.756433,2.2623 4.786287,3.79864 1.029853,1.51945 1.54478,3.27527 1.54478,5.26745 0,1.97529 -0.565575,3.84085 -1.696726,5.59666 -1.131151,1.73893 -2.760345,3.098 -4.887584,4.07721 -2.110355,0.96232 -4.490836,1.44348 -7.141443,1.44348 -3.359687,0 -6.179122,-0.4896 -8.458306,-1.46881 -2.262301,-0.9792 -4.043442,-2.44801 -5.343421,-4.40642 -1.283096,-1.97529 -1.95841,-4.60901 -2.025941,-7.09079 z" />
    </g>
    <text
       id="text839"
       y="132.29167"
       x="68.035713"
       style="font-style:normal;font-weight:normal;font-size:10.5833px;line-height:1.25;font-family:sans-serif;fill:#000000;fill-opacity:1;stroke:none;stroke-width:0.264583"
       xml:space="preserve"><tspan
         style="stroke-width:0.264583"
         y="132.29167"
         x="68.035713"
         id="tspan837"
         sodipodi:role="line" /></text>
  </g>
</svg>
